<?xml version="1.0" encoding="UTF-8" standalone="no"?>
<!DOCTYPE svg PUBLIC "-//W3C//DTD SVG 1.1//EN" "http://www.w3.org/Graphics/SVG/1.1/DTD/svg11.dtd">
<svg width="100%" height="100%" viewBox="0 0 19 19" version="1.1" xmlns="http://www.w3.org/2000/svg" xmlns:xlink="http://www.w3.org/1999/xlink" xml:space="preserve" xmlns:serif="http://www.serif.com/" style="fill-rule:evenodd;clip-rule:evenodd;stroke-linejoin:round;stroke-miterlimit:1.41421;">
    <g transform="matrix(1,0,0,1,-296.091,-83.9997)">
        <path id="Forma-1" serif:id="Forma 1" d="M305.508,84C300.321,84 296.091,88.034 296.091,93C296.091,97.965 300.305,102 305.508,102C310.695,102 314.909,97.965 314.909,93C314.909,88.034 310.695,84 305.508,84ZM305.508,100.743C301.051,100.743 297.42,97.267 297.42,93C297.42,88.733 301.051,85.257 305.508,85.257C309.965,85.257 313.596,88.733 313.596,93C313.596,97.267 309.965,100.743 305.508,100.743ZM304.843,92.271L304.843,88.764C304.843,88.407 305.135,88.127 305.508,88.127C305.881,88.127 306.173,88.407 306.173,88.764L306.173,92.286L309.836,92.286C310.208,92.286 310.5,92.55 310.5,92.907C310.5,93.264 310.208,93.543 309.836,93.543L306.173,93.543L306.173,97.05C306.173,97.407 305.881,97.686 305.508,97.686C305.135,97.686 304.843,97.407 304.843,97.05L304.843,93.543L301.18,93.543C300.803,93.538 300.516,93.261 300.516,92.907C300.516,92.553 300.803,92.275 301.18,92.271L304.843,92.271Z" style="fill:rgb(85,85,85);"/>
    </g>
</svg>
