<?xml version="1.0" encoding="UTF-8" standalone="no"?>
<!DOCTYPE svg PUBLIC "-//W3C//DTD SVG 1.1//EN" "http://www.w3.org/Graphics/SVG/1.1/DTD/svg11.dtd">
<svg width="100%" height="100%" viewBox="0 0 16 19" version="1.1" xmlns="http://www.w3.org/2000/svg" xmlns:xlink="http://www.w3.org/1999/xlink" xml:space="preserve" xmlns:serif="http://www.serif.com/" style="fill-rule:evenodd;clip-rule:evenodd;stroke-linejoin:round;stroke-miterlimit:1.41421;">
    <g transform="matrix(1,0,0,1,-1488.58,-970.5)">
        <path id="Forma-1" serif:id="Forma 1" d="M1493.87,972.776C1494.02,971.496 1495.14,970.5 1496.5,970.5C1497.86,970.5 1498.98,971.497 1499.13,972.776L1502.18,972.776C1503.41,972.776 1504.42,973.75 1504.42,974.946L1504.42,975.058C1504.42,975.973 1503.83,976.755 1503,977.075L1503,987.329C1503,988.525 1502,989.499 1500.77,989.499L1492.23,989.499C1491,989.499 1490,988.525 1490,987.329L1490,977.074C1489.17,976.755 1488.58,975.973 1488.58,975.058L1488.58,974.946C1488.58,973.75 1489.59,972.776 1490.82,972.776L1493.87,972.776ZM1500.77,988.47C1501.41,988.47 1501.94,987.958 1501.94,987.329L1501.94,977.228L1491.06,977.228L1491.06,987.329C1491.06,987.958 1491.59,988.47 1492.23,988.47L1500.77,988.47ZM1493.66,987.153C1493.95,987.153 1494.19,986.923 1494.19,986.639L1494.19,980.843C1494.19,980.559 1493.95,980.328 1493.66,980.328C1493.36,980.328 1493.13,980.559 1493.13,980.843L1493.13,986.639C1493.13,986.923 1493.36,987.153 1493.66,987.153ZM1499.34,987.153C1499.64,987.153 1499.87,986.923 1499.87,986.639L1499.87,980.843C1499.87,980.559 1499.64,980.328 1499.34,980.328C1499.05,980.328 1498.81,980.559 1498.81,980.843L1498.81,986.639C1498.81,986.923 1499.05,987.153 1499.34,987.153ZM1496.5,987.153C1496.79,987.153 1497.03,986.923 1497.03,986.639L1497.03,980.843C1497.03,980.559 1496.79,980.328 1496.5,980.328C1496.21,980.328 1495.97,980.559 1495.97,980.843L1495.97,986.639C1495.97,986.923 1496.21,987.153 1496.5,987.153ZM1502.18,976.199C1502.83,976.199 1503.36,975.687 1503.36,975.058L1503.36,974.946C1503.36,974.317 1502.83,973.805 1502.18,973.805L1490.82,973.805C1490.17,973.805 1489.64,974.317 1489.64,974.946L1489.64,975.058C1489.64,975.687 1490.17,976.199 1490.82,976.199L1502.18,976.199ZM1498.06,972.776C1497.92,972.066 1497.27,971.529 1496.5,971.529C1495.73,971.529 1495.08,972.066 1494.94,972.776L1498.06,972.776Z" style="fill:rgb(85,85,85);"/>
    </g>
</svg>
