<svg width="171" height="40" viewBox="0 0 171 40" fill="none" xmlns="http://www.w3.org/2000/svg">
<path d="M48.792 19.552C48.792 17.888 49.152 16.408 49.872 15.112C50.592 13.8 51.592 12.784 52.872 12.064C54.168 11.328 55.632 10.96 57.264 10.96C59.264 10.96 60.976 11.488 62.4 12.544C63.824 13.6 64.776 15.04 65.256 16.864H60.744C60.408 16.16 59.928 15.624 59.304 15.256C58.696 14.888 58 14.704 57.216 14.704C55.952 14.704 54.928 15.144 54.144 16.024C53.36 16.904 52.968 18.08 52.968 19.552C52.968 21.024 53.36 22.2 54.144 23.08C54.928 23.96 55.952 24.4 57.216 24.4C58 24.4 58.696 24.216 59.304 23.848C59.928 23.48 60.408 22.944 60.744 22.24H65.256C64.776 24.064 63.824 25.504 62.4 26.56C60.976 27.6 59.264 28.12 57.264 28.12C55.632 28.12 54.168 27.76 52.872 27.04C51.592 26.304 50.592 25.288 49.872 23.992C49.152 22.696 48.792 21.216 48.792 19.552ZM73.8653 28.192C72.5533 28.192 71.3693 27.912 70.3133 27.352C69.2733 26.792 68.4493 25.992 67.8413 24.952C67.2493 23.912 66.9533 22.696 66.9533 21.304C66.9533 19.928 67.2573 18.72 67.8652 17.68C68.4733 16.624 69.3053 15.816 70.3613 15.256C71.4173 14.696 72.6013 14.416 73.9133 14.416C75.2253 14.416 76.4093 14.696 77.4653 15.256C78.5213 15.816 79.3533 16.624 79.9613 17.68C80.5693 18.72 80.8733 19.928 80.8733 21.304C80.8733 22.68 80.5613 23.896 79.9373 24.952C79.3293 25.992 78.4893 26.792 77.4173 27.352C76.3613 27.912 75.1773 28.192 73.8653 28.192ZM73.8653 24.64C74.6493 24.64 75.3133 24.352 75.8573 23.776C76.4173 23.2 76.6973 22.376 76.6973 21.304C76.6973 20.232 76.4253 19.408 75.8813 18.832C75.3533 18.256 74.6973 17.968 73.9133 17.968C73.1133 17.968 72.4493 18.256 71.9213 18.832C71.3933 19.392 71.1293 20.216 71.1293 21.304C71.1293 22.376 71.3853 23.2 71.8973 23.776C72.4253 24.352 73.0813 24.64 73.8653 24.64ZM100.139 14.464C101.803 14.464 103.123 14.968 104.099 15.976C105.091 16.984 105.587 18.384 105.587 20.176V28H101.507V20.728C101.507 19.864 101.275 19.2 100.811 18.736C100.363 18.256 99.7385 18.016 98.9385 18.016C98.1385 18.016 97.5065 18.256 97.0425 18.736C96.5945 19.2 96.3705 19.864 96.3705 20.728V28H92.2905V20.728C92.2905 19.864 92.0585 19.2 91.5945 18.736C91.1465 18.256 90.5225 18.016 89.7225 18.016C88.9225 18.016 88.2905 18.256 87.8265 18.736C87.3785 19.2 87.1545 19.864 87.1545 20.728V28H83.0505V14.608H87.1545V16.288C87.5705 15.728 88.1145 15.288 88.7865 14.968C89.4585 14.632 90.2185 14.464 91.0665 14.464C92.0745 14.464 92.9705 14.68 93.7545 15.112C94.5545 15.544 95.1785 16.16 95.6265 16.96C96.0905 16.224 96.7225 15.624 97.5225 15.16C98.3225 14.696 99.1945 14.464 100.139 14.464ZM112.561 16.504C112.961 15.88 113.513 15.376 114.217 14.992C114.921 14.608 115.745 14.416 116.689 14.416C117.793 14.416 118.793 14.696 119.689 15.256C120.585 15.816 121.289 16.616 121.801 17.656C122.329 18.696 122.593 19.904 122.593 21.28C122.593 22.656 122.329 23.872 121.801 24.928C121.289 25.968 120.585 26.776 119.689 27.352C118.793 27.912 117.793 28.192 116.689 28.192C115.761 28.192 114.937 28 114.217 27.616C113.513 27.232 112.961 26.736 112.561 26.128V34.384H108.457V14.608H112.561V16.504ZM118.417 21.28C118.417 20.256 118.129 19.456 117.553 18.88C116.993 18.288 116.297 17.992 115.465 17.992C114.649 17.992 113.953 18.288 113.377 18.88C112.817 19.472 112.537 20.28 112.537 21.304C112.537 22.328 112.817 23.136 113.377 23.728C113.953 24.32 114.649 24.616 115.465 24.616C116.281 24.616 116.977 24.32 117.553 23.728C118.129 23.12 118.417 22.304 118.417 21.28ZM123.93 21.28C123.93 19.904 124.186 18.696 124.698 17.656C125.226 16.616 125.938 15.816 126.834 15.256C127.73 14.696 128.73 14.416 129.834 14.416C130.778 14.416 131.602 14.608 132.306 14.992C133.026 15.376 133.578 15.88 133.962 16.504V14.608H138.066V28H133.962V26.104C133.562 26.728 133.002 27.232 132.282 27.616C131.578 28 130.754 28.192 129.81 28.192C128.722 28.192 127.73 27.912 126.834 27.352C125.938 26.776 125.226 25.968 124.698 24.928C124.186 23.872 123.93 22.656 123.93 21.28ZM133.962 21.304C133.962 20.28 133.674 19.472 133.098 18.88C132.538 18.288 131.85 17.992 131.034 17.992C130.218 17.992 129.522 18.288 128.946 18.88C128.386 19.456 128.106 20.256 128.106 21.28C128.106 22.304 128.386 23.12 128.946 23.728C129.522 24.32 130.218 24.616 131.034 24.616C131.85 24.616 132.538 24.32 133.098 23.728C133.674 23.136 133.962 22.328 133.962 21.304ZM149.195 14.464C150.763 14.464 152.011 14.976 152.939 16C153.883 17.008 154.355 18.4 154.355 20.176V28H150.275V20.728C150.275 19.832 150.043 19.136 149.579 18.64C149.115 18.144 148.491 17.896 147.707 17.896C146.923 17.896 146.299 18.144 145.835 18.64C145.371 19.136 145.139 19.832 145.139 20.728V28H141.035V14.608H145.139V16.384C145.555 15.792 146.115 15.328 146.819 14.992C147.523 14.64 148.315 14.464 149.195 14.464ZM170.887 14.608L162.487 34.36H158.071L161.143 27.544L155.695 14.608H160.279L163.375 22.984L166.447 14.608H170.887Z" fill="white"/>
<path fill-rule="evenodd" clip-rule="evenodd" d="M20 40C31.0457 40 40 31.0457 40 20C40 8.9543 31.0457 0 20 0C8.9543 0 0 8.9543 0 20C0 31.0457 8.9543 40 20 40ZM29.9575 24.1661C28.1826 24.9318 26.1231 24.1136 25.3575 22.3387C24.709 20.8354 23.0128 19.1329 21.4432 18.4399C19.6749 17.6591 18.8744 15.5926 19.6552 13.8243C20.436 12.056 22.5024 11.2555 24.2707 12.0363C27.4069 13.4212 30.4166 16.394 31.7849 19.5661C32.5506 21.341 31.7324 23.4005 29.9575 24.1661ZM10.9945 15.8339C12.7694 15.0682 14.8289 15.8864 15.5945 17.6613C16.243 19.1646 17.9392 20.867 19.5088 21.5601C21.2771 22.3409 22.0776 24.4074 21.2968 26.1756C20.516 27.9439 18.4496 28.7444 16.6813 27.9636C13.545 26.5788 10.5354 23.6059 9.16704 20.4339C8.40139 18.659 9.21956 16.5995 10.9945 15.8339Z" fill="white"/>
</svg>
