<?xml version="1.0" encoding="UTF-8" standalone="no"?>
<!DOCTYPE svg PUBLIC "-//W3C//DTD SVG 1.1//EN" "http://www.w3.org/Graphics/SVG/1.1/DTD/svg11.dtd">
<svg width="100%" height="100%" viewBox="0 0 707 165" version="1.1" xmlns="http://www.w3.org/2000/svg" xmlns:xlink="http://www.w3.org/1999/xlink" xml:space="preserve" xmlns:serif="http://www.serif.com/" style="fill-rule:evenodd;clip-rule:evenodd;stroke-linejoin:round;stroke-miterlimit:1.41421;">
    <g transform="matrix(1,0,0,1,-426.38,-296.438)">
        <g>
            <rect id="Rectangle-19" serif:id="Rectangle 19" x="459" y="435" width="333" height="1" style="fill:rgb(203,203,203);"/>
            <rect id="Rectangle-19-copy-9" serif:id="Rectangle 19 copy 9" x="469" y="435" width="664" height="1" style="fill:rgb(191,191,191);"/>
            <rect id="Rectangle-19-copy-8" serif:id="Rectangle 19 copy 8" x="469" y="298" width="1" height="148" style="fill:rgb(203,203,203);"/>
            <g id="Jan" transform="matrix(1,0,0,1,479,457.5)">
                <text x="0px" y="0px" style="font-family:'ArialMT', 'Arial', sans-serif;font-size:14px;fill:rgb(86,86,86);">Jan</text>
            </g>
            <g id="Feb" transform="matrix(1,0,0,1,535,457.5)">
                <text x="0px" y="0px" style="font-family:'ArialMT', 'Arial', sans-serif;font-size:14px;fill:rgb(86,86,86);">Feb</text>
            </g>
            <g id="Mar" transform="matrix(1,0,0,1,590,457.5)">
                <text x="0px" y="0px" style="font-family:'ArialMT', 'Arial', sans-serif;font-size:14px;fill:rgb(86,86,86);">Mar</text>
            </g>
            <g id="Apr" transform="matrix(1,0,0,1,648,457.5)">
                <text x="0px" y="0px" style="font-family:'ArialMT', 'Arial', sans-serif;font-size:14px;fill:rgb(86,86,86);">Apr</text>
            </g>
            <g id="May" transform="matrix(1,0,0,1,701,457.5)">
                <text x="0px" y="0px" style="font-family:'ArialMT', 'Arial', sans-serif;font-size:14px;fill:rgb(86,86,86);">May</text>
            </g>
            <g id="Jun" transform="matrix(1,0,0,1,760,457.5)">
                <text x="0px" y="0px" style="font-family:'ArialMT', 'Arial', sans-serif;font-size:14px;fill:rgb(86,86,86);">Jun</text>
            </g>
            <g id="Jul" transform="matrix(1,0,0,1,820,457.5)">
                <text x="0px" y="0px" style="font-family:'ArialMT', 'Arial', sans-serif;font-size:14px;fill:rgb(86,86,86);">Jul</text>
            </g>
            <g id="Aug" transform="matrix(1,0,0,1,872,457.5)">
                <text x="0px" y="0px" style="font-family:'ArialMT', 'Arial', sans-serif;font-size:14px;fill:rgb(86,86,86);">Aug</text>
            </g>
            <g id="Sep" transform="matrix(1,0,0,1,928,457.5)">
                <text x="0px" y="0px" style="font-family:'ArialMT', 'Arial', sans-serif;font-size:14px;fill:rgb(86,86,86);">Sep</text>
            </g>
            <g id="Oct" transform="matrix(1,0,0,1,985,457.5)">
                <text x="0px" y="0px" style="font-family:'ArialMT', 'Arial', sans-serif;font-size:14px;fill:rgb(86,86,86);">Oct</text>
            </g>
            <g id="Nov" transform="matrix(1,0,0,1,1040,457.5)">
                <text x="0px" y="0px" style="font-family:'ArialMT', 'Arial', sans-serif;font-size:14px;fill:rgb(86,86,86);">Nov</text>
            </g>
            <g id="Dec" transform="matrix(1,0,0,1,1096,457.5)">
                <text x="0px" y="0px" style="font-family:'ArialMT', 'Arial', sans-serif;font-size:14px;fill:rgb(86,86,86);">Dec</text>
            </g>
            <g id="Group-9" serif:id="Group 9">
                <rect id="Rectangle-514" serif:id="Rectangle 514" x="477" y="303" width="14" height="132" style="fill:rgb(27,191,199);"/>
                <rect id="Rectangle-514-copy" serif:id="Rectangle 514 copy" x="493" y="323.188" width="14" height="111.813" style="fill:rgb(69,183,127);"/>
            </g>
            <g id="Group-10" serif:id="Group 10">
                <rect id="Rectangle-5141" serif:id="Rectangle 514" x="533" y="365.406" width="14" height="69.594" style="fill:rgb(27,191,199);"/>
                <rect id="Rectangle-514-copy1" serif:id="Rectangle 514 copy" x="549" y="370.906" width="14" height="64.094" style="fill:rgb(69,183,127);"/>
            </g>
            <g id="Group-11" serif:id="Group 11">
                <rect id="Rectangle-5142" serif:id="Rectangle 514" x="589" y="354.469" width="14" height="80.531" style="fill:rgb(27,191,199);"/>
                <rect id="Rectangle-514-copy2" serif:id="Rectangle 514 copy" x="605" y="366.969" width="14" height="68.031" style="fill:rgb(69,183,127);"/>
            </g>
            <g id="Group-12" serif:id="Group 12">
                <rect id="Rectangle-5143" serif:id="Rectangle 514" x="645" y="387.313" width="14" height="47.688" style="fill:rgb(27,191,199);"/>
                <rect id="Rectangle-514-copy3" serif:id="Rectangle 514 copy" x="661" y="381.063" width="14" height="53.938" style="fill:rgb(69,183,127);"/>
            </g>
            <g id="Group-13" serif:id="Group 13">
                <rect id="Rectangle-5144" serif:id="Rectangle 514" x="701" y="335.719" width="14" height="99.281" style="fill:rgb(27,191,199);"/>
                <rect id="Rectangle-514-copy4" serif:id="Rectangle 514 copy" x="717" y="350.563" width="14" height="84.438" style="fill:rgb(69,183,127);"/>
            </g>
            <g id="Group-14" serif:id="Group 14">
                <rect id="Rectangle-5145" serif:id="Rectangle 514" x="757" y="306" width="14" height="129" style="fill:rgb(27,191,199);"/>
                <rect id="Rectangle-514-copy5" serif:id="Rectangle 514 copy" x="773" y="325.531" width="14" height="109.469" style="fill:rgb(69,183,127);"/>
            </g>
            <g id="Group-15" serif:id="Group 15">
                <rect id="Rectangle-5146" serif:id="Rectangle 514" x="813" y="358.188" width="14" height="76.813" style="fill:rgb(27,191,199);"/>
                <rect id="Rectangle-514-copy6" serif:id="Rectangle 514 copy" x="829" y="357.594" width="14" height="77.406" style="fill:rgb(69,183,127);"/>
            </g>
            <g id="Group-16" serif:id="Group 16">
                <rect id="Rectangle-514-copy-2" serif:id="Rectangle 514 copy 2" x="869" y="365.406" width="14" height="69.594" style="fill:rgb(27,191,199);"/>
                <rect id="Rectangle-514-copy-21" serif:id="Rectangle 514 copy 2" x="885" y="370.906" width="14" height="64.094" style="fill:rgb(69,183,127);"/>
            </g>
            <g id="Group-17" serif:id="Group 17">
                <rect id="Rectangle-514-copy-22" serif:id="Rectangle 514 copy 2" x="925" y="354.469" width="14" height="80.531" style="fill:rgb(27,191,199);"/>
                <rect id="Rectangle-514-copy-23" serif:id="Rectangle 514 copy 2" x="941" y="366.969" width="14" height="68.031" style="fill:rgb(69,183,127);"/>
            </g>
            <g id="Group-18" serif:id="Group 18">
                <rect id="Rectangle-514-copy-24" serif:id="Rectangle 514 copy 2" x="981" y="387.313" width="14" height="47.688" style="fill:rgb(27,191,199);"/>
                <rect id="Rectangle-514-copy-25" serif:id="Rectangle 514 copy 2" x="997" y="381.063" width="14" height="53.938" style="fill:rgb(69,183,127);"/>
            </g>
            <g id="Group-19" serif:id="Group 19">
                <rect id="Rectangle-514-copy-26" serif:id="Rectangle 514 copy 2" x="1037" y="335.719" width="14" height="99.281" style="fill:rgb(27,191,199);"/>
                <rect id="Rectangle-514-copy-27" serif:id="Rectangle 514 copy 2" x="1053" y="350.563" width="14" height="84.438" style="fill:rgb(69,183,127);"/>
            </g>
            <g id="Group-20" serif:id="Group 20">
                <rect id="Rectangle-514-copy-28" serif:id="Rectangle 514 copy 2" x="1093" y="306" width="14" height="129" style="fill:rgb(27,191,199);"/>
                <rect id="Rectangle-514-copy-29" serif:id="Rectangle 514 copy 2" x="1109" y="325.531" width="14" height="109.469" style="fill:rgb(69,183,127);"/>
            </g>
            <g id="_1000" serif:id="1000" transform="matrix(1,0,0,1,456,306.5)">
                <text x="-31.145px" y="0px" style="font-family:'ArialMT', 'Arial', sans-serif;font-size:14px;fill:rgb(86,86,86);">1000</text>
            </g>
            <g id="_750" serif:id="750" transform="matrix(1,0,0,1,456,340.5)">
                <text x="-23.358px" y="0px" style="font-family:'ArialMT', 'Arial', sans-serif;font-size:14px;fill:rgb(86,86,86);">750</text>
            </g>
            <g id="_500" serif:id="500" transform="matrix(1,0,0,1,456,373.5)">
                <text x="-23.358px" y="0px" style="font-family:'ArialMT', 'Arial', sans-serif;font-size:14px;fill:rgb(86,86,86);">500</text>
            </g>
            <g id="_250" serif:id="250" transform="matrix(1,0,0,1,456,406.5)">
                <text x="-23.358px" y="0px" style="font-family:'ArialMT', 'Arial', sans-serif;font-size:14px;fill:rgb(86,86,86);">250</text>
            </g>
            <g id="_0" serif:id="0" transform="matrix(1,0,0,1,456,439.5)">
                <text x="-7.786px" y="0px" style="font-family:'ArialMT', 'Arial', sans-serif;font-size:14px;fill:rgb(86,86,86);">0</text>
            </g>
        </g>
    </g>
</svg>
