<svg width="40" height="40" viewBox="0 0 40 40" fill="none" xmlns="http://www.w3.org/2000/svg">
<path fill-rule="evenodd" clip-rule="evenodd" d="M20 40C31.0457 40 40 31.0457 40 20C40 8.9543 31.0457 0 20 0C8.9543 0 0 8.9543 0 20C0 31.0457 8.9543 40 20 40ZM29.9575 24.1661C28.1826 24.9318 26.1231 24.1136 25.3575 22.3387C24.709 20.8354 23.0128 19.1329 21.4432 18.4399C19.6749 17.6591 18.8744 15.5926 19.6552 13.8243C20.436 12.056 22.5024 11.2555 24.2707 12.0363C27.4069 13.4212 30.4166 16.394 31.7849 19.5661C32.5506 21.341 31.7324 23.4005 29.9575 24.1661ZM10.9945 15.8339C12.7694 15.0682 14.8289 15.8864 15.5945 17.6613C16.243 19.1646 17.9392 20.867 19.5088 21.5601C21.2771 22.3409 22.0776 24.4074 21.2968 26.1756C20.516 27.9439 18.4496 28.7444 16.6813 27.9636C13.545 26.5788 10.5354 23.6059 9.16704 20.4339C8.40139 18.659 9.21956 16.5995 10.9945 15.8339Z" fill="white"/>
</svg>
