<?xml version="1.0" encoding="UTF-8" standalone="no"?>
<!DOCTYPE svg PUBLIC "-//W3C//DTD SVG 1.1//EN" "http://www.w3.org/Graphics/SVG/1.1/DTD/svg11.dtd">
<svg width="100%" height="100%" viewBox="0 0 24 24" version="1.1" xmlns="http://www.w3.org/2000/svg" xmlns:xlink="http://www.w3.org/1999/xlink" xml:space="preserve" xmlns:serif="http://www.serif.com/" style="fill-rule:evenodd;clip-rule:evenodd;stroke-linejoin:round;stroke-miterlimit:1.41421;">
    <g id="Forma-1" serif:id="Forma 1" transform="matrix(1,0,0,1,-1286.37,-20.345)">
        <path d="M1308.86,38.082C1306.81,36.308 1304.92,33.805 1304.92,27.556C1304.92,23.937 1301.98,20.992 1298.37,20.992C1294.76,20.992 1291.82,23.937 1291.82,27.556C1291.82,33.811 1289.93,36.311 1287.88,38.084C1287.32,38.579 1286.99,39.293 1286.99,40.043C1286.99,40.455 1287.32,40.789 1287.73,40.789L1294.8,40.789C1295.15,42.448 1296.62,43.698 1298.37,43.698C1300.13,43.698 1301.6,42.448 1301.94,40.789L1309.01,40.789C1309.42,40.789 1309.75,40.455 1309.75,40.043C1309.75,39.287 1309.43,38.572 1308.86,38.082ZM1298.37,42.205C1297.44,42.205 1296.65,41.615 1296.35,40.789L1300.39,40.789C1300.09,41.615 1299.3,42.205 1298.37,42.205ZM1288.77,39.296C1288.8,39.267 1288.83,39.238 1288.86,39.212C1291.98,36.509 1293.31,33.023 1293.31,27.556C1293.31,24.76 1295.58,22.486 1298.37,22.486C1301.16,22.486 1303.43,24.76 1303.43,27.556C1303.43,33.018 1304.76,36.504 1307.88,39.213C1307.91,39.239 1307.94,39.267 1307.97,39.296L1288.77,39.296Z" style="fill:rgb(43,207,165);fill-rule:nonzero;"/>
    </g>
</svg>
