<?xml version="1.0" encoding="UTF-8" standalone="no"?>
<!DOCTYPE svg PUBLIC "-//W3C//DTD SVG 1.1//EN" "http://www.w3.org/Graphics/SVG/1.1/DTD/svg11.dtd">
<svg width="100%" height="100%" viewBox="0 0 16 16" version="1.1" xmlns="http://www.w3.org/2000/svg" xmlns:xlink="http://www.w3.org/1999/xlink" xml:space="preserve" xmlns:serif="http://www.serif.com/" style="fill-rule:evenodd;clip-rule:evenodd;stroke-linejoin:round;stroke-miterlimit:1.41421;">
    <g>
        <g transform="matrix(1,0,0,-1,0,16)">
            <rect x="0" y="0" width="16" height="16" style="fill:none;"/>
        </g>
        <g transform="matrix(1,0,0,1,-0.248223,0.25)">
            <path d="M8.259,3C8.763,3.001 9.255,3.08 9.736,3.218L9.752,3.223C9.96,3.282 10.163,3.357 10.363,3.439L10.517,3.504C10.662,3.569 10.802,3.644 10.942,3.721C11.001,3.753 11.065,3.778 11.124,3.813C11.721,4.176 12.302,4.646 12.856,5.237C13.275,5.684 13.663,6.182 14.01,6.718C14.179,6.981 14.328,7.235 14.418,7.415C14.526,7.632 14.522,7.889 14.409,8.104C14.082,8.714 13.689,9.294 13.241,9.828C13.214,9.86 13.177,9.877 13.146,9.904C13.043,10.024 12.946,10.149 12.839,10.263C12.289,10.851 11.711,11.319 11.112,11.676L11.124,11.687C10.993,11.764 10.855,11.826 10.72,11.893C10.679,11.913 10.64,11.935 10.599,11.954C10.483,12.009 10.367,12.054 10.25,12.101C10.115,12.153 9.98,12.204 9.841,12.246C9.784,12.264 9.726,12.281 9.668,12.296C9.462,12.352 9.253,12.398 9.042,12.431L8.991,12.439C8.766,12.472 8.538,12.489 8.309,12.495C8.289,12.496 8.271,12.5 8.251,12.5L8.238,12.499L8.232,12.499C8.207,12.5 8.188,12.496 8.168,12.495C7.939,12.489 7.711,12.472 7.486,12.439L7.435,12.431C7.223,12.398 7.014,12.352 6.808,12.296C6.751,12.281 6.693,12.264 6.636,12.246C6.497,12.204 6.362,12.153 6.227,12.101C6.11,12.054 5.993,12.009 5.878,11.954C5.837,11.935 5.797,11.913 5.757,11.893C5.622,11.826 5.483,11.764 5.353,11.687L5.364,11.676C4.955,11.432 4.56,11.115 4.172,10.764C4.138,10.744 4.116,10.711 4.088,10.685C3.937,10.545 3.784,10.419 3.637,10.263C3.421,10.032 3.214,9.787 3.017,9.532C2.837,9.301 2.667,9.06 2.505,8.812L2.484,8.782C2.324,8.535 2.187,8.299 2.095,8.12L2.086,8.104L2.085,8.102L2.076,8.085C2.051,8.035 2.052,7.978 2.039,7.924C2.025,7.866 2,7.81 2,7.75C2,7.69 2.025,7.634 2.039,7.576C2.052,7.521 2.051,7.465 2.076,7.415L2.085,7.398L2.085,7.397L2.091,7.387C2.187,7.201 2.324,6.965 2.484,6.718L2.505,6.688C2.667,6.439 2.837,6.199 3.017,5.968C3.214,5.712 3.421,5.468 3.637,5.237C3.795,5.068 3.959,4.928 4.122,4.778C4.138,4.763 4.15,4.745 4.167,4.73C5.065,3.918 6.018,3.374 7.025,3.14L7.026,3.14L7.326,3.079C7.626,3.026 7.931,3 8.235,3L8.259,3ZM8.256,4.5L8.216,4.5C7.932,4.501 7.646,4.535 7.367,4.6C6.633,4.771 5.897,5.189 5.179,5.843L5.136,5.883L5.01,5.998C4.917,6.083 4.822,6.166 4.731,6.263C4.555,6.452 4.376,6.662 4.202,6.887C4.05,7.083 3.901,7.292 3.761,7.507C3.752,7.521 3.74,7.54 3.727,7.557L3.607,7.75L3.728,7.943L3.761,7.992C3.901,8.208 4.05,8.417 4.202,8.613C4.376,8.838 4.555,9.048 4.732,9.237C4.802,9.312 4.876,9.376 4.949,9.441L5.109,9.586L5.157,9.633L5.178,9.652C5.542,9.981 5.854,10.222 6.133,10.388C6.173,10.412 6.211,10.437 6.249,10.464L6.306,10.492L6.42,10.547L6.506,10.591C6.592,10.633 6.663,10.66 6.732,10.687L6.783,10.708C6.868,10.74 6.968,10.779 7.071,10.81L7.207,10.851C7.365,10.893 7.517,10.926 7.663,10.948L7.732,10.96C7.856,10.978 8.022,10.991 8.208,10.996L8.239,10.997L8.271,10.996C8.455,10.991 8.621,10.978 8.776,10.955L8.815,10.948C8.959,10.926 9.111,10.893 9.278,10.848L9.396,10.813C9.509,10.779 9.609,10.74 9.709,10.702L9.744,10.687C9.814,10.66 9.884,10.633 9.954,10.6L10.056,10.547L10.17,10.492L10.229,10.464C10.266,10.437 10.304,10.412 10.344,10.388C10.829,10.099 11.3,9.711 11.745,9.237C11.795,9.183 11.843,9.125 11.891,9.066L12.004,8.931C12.055,8.872 12.11,8.816 12.169,8.766L12.181,8.755C12.439,8.437 12.676,8.101 12.886,7.75C12.845,7.683 12.8,7.61 12.749,7.531C12.451,7.07 12.119,6.643 11.763,6.264C11.315,5.786 10.84,5.397 10.353,5.107C10.339,5.1 10.325,5.091 10.312,5.083L10.222,5.036C10.118,4.979 10.015,4.922 9.907,4.875L9.846,4.849L9.781,4.822C9.615,4.753 9.471,4.702 9.341,4.665C8.952,4.553 8.604,4.501 8.256,4.5ZM8.248,5.485C9.498,5.485 10.513,6.499 10.513,7.75C10.513,9 9.499,10.015 8.248,10.015C6.998,10.015 5.984,9 5.984,7.75C5.984,6.499 6.998,5.485 8.248,5.485Z" style="fill:rgb(43,207,165);"/>
        </g>
    </g>
</svg>
