<?xml version="1.0" encoding="UTF-8" standalone="no"?>
<!DOCTYPE svg PUBLIC "-//W3C//DTD SVG 1.1//EN" "http://www.w3.org/Graphics/SVG/1.1/DTD/svg11.dtd">
<svg width="100%" height="100%" viewBox="0 0 18 18" version="1.1" xmlns="http://www.w3.org/2000/svg" xmlns:xlink="http://www.w3.org/1999/xlink" xml:space="preserve" xmlns:serif="http://www.serif.com/" style="fill-rule:evenodd;clip-rule:evenodd;stroke-linejoin:round;stroke-miterlimit:1.41421;">
    <g id="Forma-1" serif:id="Forma 1" transform="matrix(1,0,0,1,-219.815,-24.8144)">
        <path d="M236.615,40.675L232.77,36.83C233.723,35.668 234.297,34.18 234.297,32.558C234.297,28.837 231.279,25.819 227.558,25.819C223.834,25.819 220.819,28.837 220.819,32.558C220.819,36.278 223.834,39.297 227.558,39.297C229.18,39.297 230.665,38.726 231.827,37.773L235.671,41.614C235.932,41.875 236.354,41.875 236.615,41.614C236.876,41.356 236.876,40.932 236.615,40.675ZM227.558,37.956C224.578,37.956 222.157,35.534 222.157,32.558C222.157,29.581 224.578,27.157 227.558,27.157C230.534,27.157 232.959,29.581 232.959,32.558C232.959,35.534 230.534,37.956 227.558,37.956Z" style="fill:white;fill-rule:nonzero;"/>
    </g>
</svg>
