<?xml version="1.0" encoding="UTF-8" standalone="no"?>
<!DOCTYPE svg PUBLIC "-//W3C//DTD SVG 1.1//EN" "http://www.w3.org/Graphics/SVG/1.1/DTD/svg11.dtd">
<svg width="100%" height="100%" viewBox="0 0 18 18" version="1.1" xmlns="http://www.w3.org/2000/svg" xmlns:xlink="http://www.w3.org/1999/xlink" xml:space="preserve" xmlns:serif="http://www.serif.com/" style="fill-rule:evenodd;clip-rule:evenodd;stroke-linejoin:round;stroke-miterlimit:1.41421;">
    <g id="Forma-1-copy-2" serif:id="Forma 1 copy 2" transform="matrix(1,0,0,1,-149.499,-1524.03)">
        <path d="M164.855,1538.82L164.855,1535.41C164.855,1535.09 165.111,1534.83 165.427,1534.83C165.743,1534.83 165.998,1535.09 165.998,1535.41L165.998,1539.16C165.998,1539.21 165.983,1539.25 165.974,1539.29C165.983,1539.33 165.998,1539.37 165.998,1539.41C165.998,1539.73 165.743,1540 165.427,1540L151.571,1540C151.256,1540 151,1539.73 151,1539.41C151,1539.37 151.016,1539.33 151.024,1539.29C151.015,1539.25 151,1539.21 151,1539.16L151,1535.41C151,1535.09 151.256,1534.83 151.571,1534.83C151.887,1534.83 152.143,1535.09 152.143,1535.41L152.143,1538.82L164.855,1538.82ZM158.535,1537.24C158.851,1537.24 159.106,1536.98 159.106,1536.65L159.106,1528.06L161.595,1530.62C161.706,1530.74 161.853,1530.8 161.999,1530.8C162.145,1530.8 162.291,1530.74 162.402,1530.62C162.626,1530.39 162.626,1530.02 162.402,1529.79L158.939,1526.23C158.716,1526 158.354,1526 158.131,1526.23L154.667,1529.79C154.444,1530.02 154.444,1530.39 154.667,1530.62C154.779,1530.74 154.925,1530.8 155.071,1530.8C155.217,1530.8 155.364,1530.74 155.475,1530.62L157.964,1528.06L157.964,1536.65C157.964,1536.98 158.219,1537.24 158.535,1537.24Z" style="fill:white;"/>
    </g>
</svg>
