<?xml version="1.0" encoding="UTF-8" standalone="no"?>
<!DOCTYPE svg PUBLIC "-//W3C//DTD SVG 1.1//EN" "http://www.w3.org/Graphics/SVG/1.1/DTD/svg11.dtd">
<svg width="100%" height="100%" viewBox="0 0 48 24" version="1.1" xmlns="http://www.w3.org/2000/svg" xmlns:xlink="http://www.w3.org/1999/xlink" xml:space="preserve" xmlns:serif="http://www.serif.com/" style="fill-rule:evenodd;clip-rule:evenodd;stroke-linejoin:round;stroke-miterlimit:1.41421;">
    <g id="Forma-1" serif:id="Forma 1" transform="matrix(1,0,0,1,-125.962,-80.8575)">
        <path d="M162.909,98.901L159.771,100.878L152.642,96.824C152.423,96.7 152.146,96.776 152.021,96.994C151.897,97.213 151.974,97.491 152.192,97.615L159.559,101.803C159.628,101.843 159.706,101.863 159.783,101.863C159.868,101.863 159.952,101.839 160.026,101.793L163.393,99.672C163.606,99.538 163.67,99.257 163.536,99.044C163.402,98.832 163.121,98.768 162.909,98.901ZM162.909,97.081L159.771,99.057L152.642,95.004C152.423,94.879 152.146,94.956 152.021,95.174C151.897,95.393 151.974,95.67 152.192,95.795L159.559,99.983C159.628,100.023 159.706,100.043 159.783,100.043C159.868,100.043 159.952,100.019 160.026,99.973L163.393,97.852C163.606,97.718 163.67,97.437 163.536,97.224C163.402,97.011 163.121,96.947 162.909,97.081ZM164.298,83.854C164.358,83.861 164.418,83.88 164.472,83.911L171.839,88.1C171.978,88.179 172.065,88.325 172.069,88.485C172.072,88.645 171.992,88.795 171.856,88.88L168.489,91.001C168.276,91.135 167.995,91.072 167.862,90.859C167.728,90.646 167.792,90.365 168.004,90.231L170.729,88.515L164.259,84.837L160.401,87.268L167.103,91.078C167.12,91.088 167.137,91.099 167.153,91.111C167.156,91.113 167.159,91.116 167.162,91.118C167.174,91.128 167.186,91.138 167.197,91.149C167.2,91.151 167.202,91.153 167.205,91.156C167.218,91.169 167.23,91.182 167.241,91.197C167.243,91.199 167.244,91.201 167.245,91.203C167.253,91.213 167.26,91.223 167.267,91.234L167.28,91.257C167.286,91.268 167.292,91.28 167.297,91.292C167.299,91.297 167.301,91.301 167.303,91.306C167.31,91.322 167.316,91.339 167.321,91.356L167.321,91.357C167.326,91.375 167.329,91.393 167.332,91.412C167.332,91.415 167.333,91.419 167.333,91.423C167.335,91.438 167.336,91.453 167.336,91.468C167.336,91.471 167.337,91.473 167.337,91.476L167.337,96.937C167.337,97.093 167.256,97.238 167.124,97.322L164.758,98.812C164.684,98.859 164.6,98.882 164.516,98.882C164.44,98.882 164.364,98.863 164.296,98.825C164.151,98.745 164.061,98.593 164.061,98.427L164.061,93.231L157.161,89.308L153.302,91.739L159.771,95.417L162.909,93.441C163.121,93.307 163.402,93.371 163.536,93.584C163.67,93.796 163.606,94.077 163.393,94.211L160.026,96.332C159.952,96.379 159.868,96.402 159.783,96.402C159.706,96.402 159.628,96.382 159.559,96.343L152.192,92.154C152.053,92.075 151.966,91.929 151.962,91.769C151.959,91.609 152.039,91.459 152.175,91.374L156.907,88.393C156.908,88.392 156.909,88.391 156.91,88.391L159.273,86.902C159.274,86.902 159.275,86.901 159.276,86.9L164.005,83.922C164.076,83.877 164.156,83.854 164.237,83.852L164.298,83.854ZM162.909,95.261L159.771,97.237L152.642,93.183C152.423,93.059 152.146,93.135 152.021,93.354C151.897,93.573 151.974,93.85 152.192,93.974L159.559,98.163C159.628,98.203 159.706,98.222 159.783,98.222C159.868,98.222 159.952,98.199 160.026,98.152L163.393,96.031C163.606,95.897 163.67,95.616 163.536,95.404C163.402,95.191 163.121,95.127 162.909,95.261ZM164.971,97.603L164.971,92.966C164.971,92.803 164.883,92.652 164.74,92.571L158.035,88.758L159.527,87.818L165.996,91.496L165.43,91.853C165.217,91.987 165.153,92.268 165.287,92.48C165.374,92.618 165.522,92.693 165.673,92.693C165.756,92.693 165.839,92.67 165.915,92.623L166.427,92.3L166.427,96.685L164.971,97.603ZM171.372,93.571L168.004,95.692C167.792,95.826 167.728,96.107 167.862,96.319C167.948,96.457 168.096,96.532 168.247,96.532C168.33,96.532 168.414,96.509 168.489,96.462L171.856,94.341C172.069,94.207 172.133,93.926 171.999,93.713C171.865,93.501 171.584,93.437 171.372,93.571ZM171.372,91.751L168.004,93.872C167.792,94.006 167.728,94.287 167.862,94.499C167.948,94.637 168.096,94.712 168.247,94.712C168.33,94.712 168.414,94.689 168.489,94.642L171.856,92.521C172.069,92.387 172.133,92.106 171.999,91.893C171.865,91.68 171.584,91.617 171.372,91.751ZM171.372,89.93L168.004,92.051C167.792,92.185 167.728,92.466 167.862,92.679C167.948,92.816 168.096,92.892 168.247,92.892C168.33,92.892 168.414,92.869 168.489,92.822L171.856,90.7C172.069,90.567 172.133,90.286 171.999,90.073C171.865,89.86 171.584,89.796 171.372,89.93Z" style="fill:rgb(85,85,85);"/>
    </g>
    <g id="Forma-11" serif:id="Forma 1" transform="matrix(1,0,0,1,-148.962,-80.8575)">
        <path d="M162.909,98.901L159.771,100.878L152.642,96.824C152.423,96.7 152.146,96.776 152.021,96.994C151.897,97.213 151.974,97.491 152.192,97.615L159.559,101.803C159.628,101.843 159.706,101.863 159.783,101.863C159.868,101.863 159.952,101.839 160.026,101.793L163.393,99.672C163.606,99.538 163.67,99.257 163.536,99.044C163.402,98.832 163.121,98.768 162.909,98.901ZM162.909,97.081L159.771,99.057L152.642,95.004C152.423,94.879 152.146,94.956 152.021,95.174C151.897,95.393 151.974,95.67 152.192,95.795L159.559,99.983C159.628,100.023 159.706,100.043 159.783,100.043C159.868,100.043 159.952,100.019 160.026,99.973L163.393,97.852C163.606,97.718 163.67,97.437 163.536,97.224C163.402,97.011 163.121,96.947 162.909,97.081ZM164.298,83.854C164.358,83.861 164.418,83.88 164.472,83.911L171.839,88.1C171.978,88.179 172.065,88.325 172.069,88.485C172.072,88.645 171.992,88.795 171.856,88.88L168.489,91.001C168.276,91.135 167.995,91.072 167.862,90.859C167.728,90.646 167.792,90.365 168.004,90.231L170.729,88.515L164.259,84.837L160.401,87.268L167.103,91.078C167.12,91.088 167.137,91.099 167.153,91.111C167.156,91.113 167.159,91.116 167.162,91.118C167.174,91.128 167.186,91.138 167.197,91.149C167.2,91.151 167.202,91.153 167.205,91.156C167.218,91.169 167.23,91.182 167.241,91.197C167.243,91.199 167.244,91.201 167.245,91.203C167.253,91.213 167.26,91.223 167.267,91.234L167.28,91.257C167.286,91.268 167.292,91.28 167.297,91.292C167.299,91.297 167.301,91.301 167.303,91.306C167.31,91.322 167.316,91.339 167.321,91.356L167.321,91.357C167.326,91.375 167.329,91.393 167.332,91.412C167.332,91.415 167.333,91.419 167.333,91.423C167.335,91.438 167.336,91.453 167.336,91.468C167.336,91.471 167.337,91.473 167.337,91.476L167.337,96.937C167.337,97.093 167.256,97.238 167.124,97.322L164.758,98.812C164.684,98.859 164.6,98.882 164.516,98.882C164.44,98.882 164.364,98.863 164.296,98.825C164.151,98.745 164.061,98.593 164.061,98.427L164.061,93.231L157.161,89.308L153.302,91.739L159.771,95.417L162.909,93.441C163.121,93.307 163.402,93.371 163.536,93.584C163.67,93.796 163.606,94.077 163.393,94.211L160.026,96.332C159.952,96.379 159.868,96.402 159.783,96.402C159.706,96.402 159.628,96.382 159.559,96.343L152.192,92.154C152.053,92.075 151.966,91.929 151.962,91.769C151.959,91.609 152.039,91.459 152.175,91.374L156.907,88.393C156.908,88.392 156.909,88.391 156.91,88.391L159.273,86.902C159.274,86.902 159.275,86.901 159.276,86.9L164.005,83.922C164.076,83.877 164.156,83.854 164.237,83.852L164.298,83.854ZM162.909,95.261L159.771,97.237L152.642,93.183C152.423,93.059 152.146,93.135 152.021,93.354C151.897,93.573 151.974,93.85 152.192,93.974L159.559,98.163C159.628,98.203 159.706,98.222 159.783,98.222C159.868,98.222 159.952,98.199 160.026,98.152L163.393,96.031C163.606,95.897 163.67,95.616 163.536,95.404C163.402,95.191 163.121,95.127 162.909,95.261ZM164.971,97.603L164.971,92.966C164.971,92.803 164.883,92.652 164.74,92.571L158.035,88.758L159.527,87.818L165.996,91.496L165.43,91.853C165.217,91.987 165.153,92.268 165.287,92.48C165.374,92.618 165.522,92.693 165.673,92.693C165.756,92.693 165.839,92.67 165.915,92.623L166.427,92.3L166.427,96.685L164.971,97.603ZM171.372,93.571L168.004,95.692C167.792,95.826 167.728,96.107 167.862,96.319C167.948,96.457 168.096,96.532 168.247,96.532C168.33,96.532 168.414,96.509 168.489,96.462L171.856,94.341C172.069,94.207 172.133,93.926 171.999,93.713C171.865,93.501 171.584,93.437 171.372,93.571ZM171.372,91.751L168.004,93.872C167.792,94.006 167.728,94.287 167.862,94.499C167.948,94.637 168.096,94.712 168.247,94.712C168.33,94.712 168.414,94.689 168.489,94.642L171.856,92.521C172.069,92.387 172.133,92.106 171.999,91.893C171.865,91.68 171.584,91.617 171.372,91.751ZM171.372,89.93L168.004,92.051C167.792,92.185 167.728,92.466 167.862,92.679C167.948,92.816 168.096,92.892 168.247,92.892C168.33,92.892 168.414,92.869 168.489,92.822L171.856,90.7C172.069,90.567 172.133,90.286 171.999,90.073C171.865,89.86 171.584,89.796 171.372,89.93Z" style="fill:rgb(43,207,165);"/>
    </g>
</svg>
