<?xml version="1.0" encoding="UTF-8" standalone="no"?>
<!DOCTYPE svg PUBLIC "-//W3C//DTD SVG 1.1//EN" "http://www.w3.org/Graphics/SVG/1.1/DTD/svg11.dtd">
<svg width="100%" height="100%" viewBox="0 0 48 24" version="1.1" xmlns="http://www.w3.org/2000/svg" xmlns:xlink="http://www.w3.org/1999/xlink" xml:space="preserve" xmlns:serif="http://www.serif.com/" style="fill-rule:evenodd;clip-rule:evenodd;stroke-linejoin:round;stroke-miterlimit:1.41421;">
    <g id="Icon-Smartphone" serif:id="Icon Smartphone" transform="matrix(1,0,0,1,-599.351,-81.1405)">
        <path d="M613.6,84.141C614.843,84.141 615.85,85.148 615.85,86.391L615.85,99.89C615.85,101.133 614.843,102.14 613.6,102.14L604.601,102.14C603.358,102.14 602.351,101.133 602.351,99.89L602.351,86.391C602.351,85.148 603.358,84.141 604.601,84.141L613.6,84.141ZM613.6,101.015C614.22,101.015 614.725,100.511 614.725,99.89L614.725,97.64L603.476,97.64L603.476,99.89C603.476,100.511 603.981,101.015 604.601,101.015L613.6,101.015ZM609.663,99.328C609.663,99.639 609.412,99.89 609.101,99.89C608.79,99.89 608.538,99.639 608.538,99.328C608.538,99.017 608.79,98.765 609.101,98.765C609.412,98.765 609.663,99.017 609.663,99.328ZM614.725,97.078L614.725,88.641L603.476,88.641L603.476,97.078L614.725,97.078ZM614.725,88.078L614.725,86.391C614.725,85.771 614.22,85.266 613.6,85.266L604.601,85.266C603.981,85.266 603.476,85.771 603.476,86.391L603.476,88.078L614.725,88.078ZM609.944,86.953L608.257,86.953C608.101,86.953 607.976,86.827 607.976,86.672C607.976,86.517 608.101,86.391 608.257,86.391L609.944,86.391C610.1,86.391 610.226,86.517 610.226,86.672C610.226,86.827 610.101,86.953 609.944,86.953Z" style="fill:rgb(43,207,165);"/>
    </g>
    <g id="Icon-Smartphone1" serif:id="Icon Smartphone" transform="matrix(1,0,0,1,-576.351,-81.1405)">
        <path d="M613.6,84.141C614.843,84.141 615.85,85.148 615.85,86.391L615.85,99.89C615.85,101.133 614.843,102.14 613.6,102.14L604.601,102.14C603.358,102.14 602.351,101.133 602.351,99.89L602.351,86.391C602.351,85.148 603.358,84.141 604.601,84.141L613.6,84.141ZM613.6,101.015C614.22,101.015 614.725,100.511 614.725,99.89L614.725,97.64L603.476,97.64L603.476,99.89C603.476,100.511 603.981,101.015 604.601,101.015L613.6,101.015ZM609.663,99.328C609.663,99.639 609.412,99.89 609.101,99.89C608.79,99.89 608.538,99.639 608.538,99.328C608.538,99.017 608.79,98.765 609.101,98.765C609.412,98.765 609.663,99.017 609.663,99.328ZM614.725,97.078L614.725,88.641L603.476,88.641L603.476,97.078L614.725,97.078ZM614.725,88.078L614.725,86.391C614.725,85.771 614.22,85.266 613.6,85.266L604.601,85.266C603.981,85.266 603.476,85.771 603.476,86.391L603.476,88.078L614.725,88.078ZM609.944,86.953L608.257,86.953C608.101,86.953 607.976,86.827 607.976,86.672C607.976,86.517 608.101,86.391 608.257,86.391L609.944,86.391C610.1,86.391 610.226,86.517 610.226,86.672C610.226,86.827 610.101,86.953 609.944,86.953Z" style="fill:rgb(85,85,85);"/>
    </g>
</svg>
