<?xml version="1.0" encoding="UTF-8" standalone="no"?>
<!DOCTYPE svg PUBLIC "-//W3C//DTD SVG 1.1//EN" "http://www.w3.org/Graphics/SVG/1.1/DTD/svg11.dtd">
<svg width="100%" height="100%" viewBox="0 0 19 19" version="1.1" xmlns="http://www.w3.org/2000/svg" xmlns:xlink="http://www.w3.org/1999/xlink" xml:space="preserve" xmlns:serif="http://www.serif.com/" style="fill-rule:evenodd;clip-rule:evenodd;stroke-linejoin:round;stroke-miterlimit:1.41421;">
    <g transform="matrix(1,0,0,1,-1454,-970.024)">
        <path id="Shape-1" serif:id="Shape 1" d="M1462.3,973.22C1462.69,973.226 1462.99,973.539 1462.99,973.92C1462.99,974.305 1462.68,974.62 1462.3,974.62L1455.7,974.62C1455.53,974.62 1455.4,974.756 1455.4,974.927L1455.4,987.292C1455.4,987.463 1455.53,987.599 1455.7,987.599L1468.06,987.599C1468.24,987.592 1468.36,987.459 1468.36,987.292L1468.36,980.964C1468.36,980.579 1468.68,980.264 1469.06,980.264C1469.45,980.264 1469.76,980.579 1469.76,980.964L1469.76,987.292C1469.76,988.233 1469,988.999 1468.06,988.999L1455.7,988.999C1454.77,988.999 1454,988.233 1454,987.292L1454,974.927C1454,973.99 1454.76,973.227 1455.7,973.22L1462.3,973.22ZM1472.97,973.916C1472.94,973.854 1472.93,973.776 1472.91,973.698C1472.87,973.492 1472.82,973.263 1472.72,973.029C1472.14,971.699 1471.17,970.754 1469.86,970.221C1469.57,970.104 1469.29,970.069 1469.04,970.042L1468.98,970.034C1468.69,969.999 1468.26,970.038 1467.86,970.446C1466.16,972.154 1464.44,973.885 1462.76,975.561L1461.53,976.786C1461.26,977.063 1461.14,977.175 1461.09,977.234C1461.03,977.292 1461.03,977.292 1460.98,977.339C1460.93,977.389 1460.83,977.498 1460.52,977.805C1460.25,978.081 1460.26,978.525 1460.53,978.797C1460.81,979.07 1461.25,979.066 1461.52,978.789C1461.83,978.478 1461.93,978.369 1461.98,978.319C1462.03,978.276 1462.03,978.276 1462.08,978.225C1462.14,978.167 1462.25,978.054 1462.52,977.778L1463.75,976.549C1465.43,974.873 1467.16,973.142 1468.86,971.431L1468.86,971.427L1468.87,971.427C1469.05,971.45 1469.22,971.469 1469.34,971.516C1470.32,971.913 1471.01,972.594 1471.44,973.59C1471.49,973.69 1471.52,973.83 1471.55,973.982C1471.56,974.021 1471.57,974.056 1471.57,974.095C1471.57,974.099 1471.57,974.103 1471.56,974.11C1468.76,976.903 1465.85,979.816 1462.65,983.021C1462.64,983.037 1462.64,983.037 1462.61,983.045C1461.54,983.27 1460.45,983.5 1459.4,983.721L1459.23,983.756L1459.26,983.612C1459.49,982.543 1459.72,981.438 1459.96,980.353C1460.04,979.976 1459.8,979.602 1459.43,979.521C1459.05,979.439 1458.68,979.676 1458.6,980.054C1458.36,981.143 1458.13,982.251 1457.9,983.325L1457.77,983.931C1457.69,984.305 1457.8,984.682 1458.06,984.939C1458.26,985.141 1458.53,985.25 1458.82,985.25C1458.9,985.25 1458.98,985.242 1459.07,985.223L1459.7,985.09C1460.75,984.868 1461.84,984.639 1462.9,984.414C1463.2,984.351 1463.44,984.219 1463.65,984.009C1466.85,980.804 1469.76,977.891 1472.55,975.098C1472.81,974.838 1472.96,974.526 1472.99,974.153C1473,974.075 1472.99,973.994 1472.97,973.916Z" style="fill:rgb(85,85,85);"/>
    </g>
</svg>
