<?xml version="1.0" encoding="UTF-8" standalone="no"?>
<!DOCTYPE svg PUBLIC "-//W3C//DTD SVG 1.1//EN" "http://www.w3.org/Graphics/SVG/1.1/DTD/svg11.dtd">
<svg width="100%" height="100%" viewBox="0 0 24 24" version="1.1" xmlns="http://www.w3.org/2000/svg" xmlns:xlink="http://www.w3.org/1999/xlink" xml:space="preserve" xmlns:serif="http://www.serif.com/" style="fill-rule:evenodd;clip-rule:evenodd;stroke-linejoin:round;stroke-miterlimit:1.41421;">
    <g id="Forma-1" serif:id="Forma 1" transform="matrix(1,0,0,1,-1340,-20.9999)">
        <path d="M1352,21C1345.37,21 1340,26.364 1340,33C1340,39.635 1345.37,45 1352,45C1358.63,45 1364,39.635 1364,33C1364,26.364 1358.63,21 1352,21ZM1352,43.588C1346.21,43.588 1341.41,38.788 1341.41,33C1341.41,27.212 1346.21,22.412 1352,22.412C1357.79,22.412 1362.59,27.212 1362.59,33C1362.59,38.788 1357.79,43.588 1352,43.588ZM1351.43,38.082C1351.29,38.223 1351.29,38.506 1351.29,38.647C1351.29,38.788 1351.29,38.929 1351.43,39.07C1351.58,39.212 1351.86,39.353 1352,39.353C1352.14,39.353 1352.42,39.212 1352.42,39.07C1352.56,39.07 1352.71,38.788 1352.71,38.647C1352.71,38.365 1352.56,38.223 1352.42,38.082C1352.14,37.8 1351.72,37.8 1351.43,38.082ZM1352.57,26.647C1351.72,26.365 1350.73,26.647 1350.02,27.212C1349.32,27.776 1348.89,28.623 1348.89,29.612C1348.89,30.035 1349.18,30.317 1349.6,30.317C1350.02,30.317 1350.31,30.035 1350.31,29.612C1350.31,29.188 1350.45,28.623 1350.87,28.341C1351.29,28.059 1351.72,27.917 1352.28,28.059C1352.99,28.2 1353.41,28.765 1353.55,29.329C1353.69,30.035 1353.55,30.6 1352.99,31.023C1351.86,31.87 1351.29,34.141 1351.29,35.412C1351.29,35.835 1351.58,36.118 1352,36.118C1352.42,36.118 1352.71,35.835 1352.57,35.412C1352.57,34.565 1353.13,32.717 1353.84,32.153C1354.82,31.306 1355.25,30.176 1354.96,29.047C1354.68,27.776 1353.69,26.929 1352.57,26.647Z" style="fill:white;"/>
    </g>
</svg>
