<?xml version="1.0" encoding="UTF-8" standalone="no"?>
<!DOCTYPE svg PUBLIC "-//W3C//DTD SVG 1.1//EN" "http://www.w3.org/Graphics/SVG/1.1/DTD/svg11.dtd">
<svg width="100%" height="100%" viewBox="0 0 20 18" version="1.1" xmlns="http://www.w3.org/2000/svg" xmlns:xlink="http://www.w3.org/1999/xlink" xml:space="preserve" xmlns:serif="http://www.serif.com/" style="fill-rule:evenodd;clip-rule:evenodd;stroke-linejoin:round;stroke-miterlimit:1.41421;">
    <g transform="matrix(1,0,0,1,-25,-3.16418)">
        <g id="Forma-1" serif:id="Forma 1" transform="matrix(1,0,0,1,-10.4757,-80.3438)">
            <path d="M50.911,100.407L50.911,92.872C50.911,92.56 51.152,92.32 51.463,92.32C51.754,92.32 51.995,92.56 51.995,92.872L51.995,100.959C51.995,101.25 51.754,101.491 51.463,101.491L46.467,101.491C46.156,101.491 45.915,101.25 45.915,100.959L45.915,97.882L44.17,97.882L44.17,100.959C44.17,101.25 43.929,101.491 43.638,101.491L38.622,101.491C38.332,101.491 38.091,101.25 38.091,100.959L38.091,93.122C38.091,92.831 38.332,92.59 38.622,92.59C38.934,92.59 39.174,92.831 39.174,93.122L39.174,100.407L43.077,100.407L43.077,97.33C43.077,97.045 43.322,96.795 43.638,96.789L46.467,96.789C46.763,96.795 46.999,97.045 46.999,97.33L46.999,100.407L50.911,100.407ZM54.462,92.75L50.109,88.381L50.109,85.403C50.109,85.093 49.858,84.853 49.547,84.853C49.256,84.853 49.015,85.093 49.015,85.403L49.015,87.289L45.424,83.679C45.314,83.568 45.183,83.508 45.053,83.508C44.902,83.508 44.772,83.57 44.662,83.679L35.643,92.69C35.427,92.906 35.413,93.252 35.643,93.451C35.844,93.682 36.189,93.667 36.406,93.451L45.053,84.832L53.68,93.533C53.77,93.622 53.9,93.674 54.071,93.674C54.222,93.674 54.352,93.622 54.462,93.533C54.663,93.332 54.678,92.968 54.462,92.75Z" style="fill:rgb(85,85,85);"/>
        </g>
    </g>
</svg>
