<?xml version="1.0" encoding="UTF-8" standalone="no"?>
<!DOCTYPE svg PUBLIC "-//W3C//DTD SVG 1.1//EN" "http://www.w3.org/Graphics/SVG/1.1/DTD/svg11.dtd">
<svg width="100%" height="100%" viewBox="0 0 16 16" version="1.1" xmlns="http://www.w3.org/2000/svg" xmlns:xlink="http://www.w3.org/1999/xlink" xml:space="preserve" xmlns:serif="http://www.serif.com/" style="fill-rule:evenodd;clip-rule:evenodd;stroke-linejoin:round;stroke-miterlimit:1.41421;">
    <g>
        <g transform="matrix(1,0,0,-1,0,16)">
            <rect x="0" y="0" width="16" height="16" style="fill:none;"/>
        </g>
        <g transform="matrix(1,0,0,1,-0.249834,-0.25)">
            <path d="M2.75,2C2.95,2 3.138,2.078 3.28,2.219L14.28,13.219C14.573,13.512 14.573,13.988 14.28,14.28C14.138,14.422 13.95,14.5 13.75,14.5C13.55,14.5 13.361,14.422 13.22,14.28L11.126,12.187C10.259,12.702 9.27,12.983 8.254,13C6.584,13 5.032,12.247 3.64,10.762C3.221,10.315 2.833,9.817 2.487,9.282C2.318,9.021 2.17,8.767 2.079,8.585C1.97,8.367 1.974,8.11 2.089,7.895C2.629,6.89 3.327,5.995 4.169,5.23L2.22,3.28C1.928,2.988 1.928,2.512 2.22,2.219C2.362,2.078 2.55,2 2.75,2ZM5.231,6.292C4.595,6.861 4.051,7.518 3.611,8.251L3.747,8.469C4.043,8.927 4.375,9.354 4.735,9.737C5.831,10.907 7.011,11.5 8.241,11.5C8.855,11.49 9.464,11.345 10.019,11.08L9.232,10.293C8.748,10.538 8.183,10.604 7.656,10.467C6.858,10.264 6.236,9.642 6.032,8.844C5.897,8.315 5.962,7.751 6.206,7.267L5.231,6.292ZM8.25,3.5C9.916,3.5 11.467,4.253 12.859,5.737C13.278,6.183 13.666,6.682 14.013,7.217C14.182,7.481 14.331,7.735 14.421,7.914C14.529,8.132 14.525,8.389 14.411,8.603C14.085,9.213 13.691,9.793 13.244,10.328C13.114,10.481 12.933,10.575 12.734,10.592L12.668,10.595C12.492,10.595 12.323,10.534 12.187,10.419C12.034,10.289 11.94,10.109 11.923,9.909C11.905,9.709 11.967,9.516 12.096,9.362L12.31,9.096C12.52,8.826 12.713,8.542 12.889,8.249C12.847,8.179 12.802,8.108 12.753,8.033C12.455,7.572 12.123,7.145 11.765,6.763C10.668,5.593 9.485,5 8.248,5C7.948,5 7.655,5.034 7.371,5.1C6.971,5.196 6.564,4.943 6.469,4.54C6.424,4.346 6.457,4.145 6.562,3.975C6.668,3.804 6.834,3.685 7.029,3.64C7.426,3.547 7.832,3.5 8.238,3.5L8.25,3.5Z" style="fill:rgb(43,207,165);"/>
        </g>
    </g>
</svg>
