<?xml version="1.0" encoding="UTF-8" standalone="no"?>
<!DOCTYPE svg PUBLIC "-//W3C//DTD SVG 1.1//EN" "http://www.w3.org/Graphics/SVG/1.1/DTD/svg11.dtd">
<svg width="100%" height="100%" viewBox="0 0 19 15" version="1.1" xmlns="http://www.w3.org/2000/svg" xmlns:xlink="http://www.w3.org/1999/xlink" xml:space="preserve" xmlns:serif="http://www.serif.com/" style="fill-rule:evenodd;clip-rule:evenodd;stroke-linejoin:round;stroke-miterlimit:1.41421;">
    <g transform="matrix(1,0,0,1,-427.155,-86.4916)">
        <path id="Forma-1" serif:id="Forma 1" d="M436.967,94.902C438.135,94.045 438.836,92.643 438.836,91.164C438.836,88.594 436.733,86.492 434.164,86.492C431.594,86.492 429.492,88.594 429.492,91.164C429.492,92.643 430.192,94.045 431.361,94.902C429.102,95.914 427.467,98.016 427.155,100.508L428.713,100.508C429.102,97.861 431.438,95.836 434.164,95.836C436.889,95.836 439.225,97.861 439.615,100.508L441.172,100.508C440.861,98.016 439.225,95.914 436.967,94.902L436.967,94.902ZM443.275,94.746C443.898,93.967 444.287,92.955 444.287,91.943C444.287,89.139 441.795,86.959 439.07,87.27C439.303,87.504 439.459,87.815 439.615,88.127C439.771,88.36 439.848,88.594 439.926,88.828C441.717,89.139 442.73,90.463 442.73,91.942C442.73,92.955 442.185,93.889 441.484,94.434C441.25,94.59 441.172,94.824 441.172,95.057C441.172,95.447 441.406,95.758 441.795,95.836C443.197,96.147 444.287,97.393 444.287,98.873L445.844,98.873C445.844,97.16 444.832,95.525 443.275,94.746L443.275,94.746ZM434.164,94.279C432.451,94.279 431.049,92.877 431.049,91.164C431.049,89.451 432.451,88.049 434.164,88.049C435.877,88.049 437.279,89.451 437.279,91.164C437.279,92.877 435.877,94.279 434.164,94.279L434.164,94.279Z" style="fill:rgb(85,85,85);"/>
    </g>
</svg>
